<?xml version="1.0" encoding="utf-8"?>
<!-- Generator: Adobe Illustrator 14.0.0, SVG Export Plug-In . SVG Version: 6.00 Build 43363)  -->
<!DOCTYPE svg PUBLIC "-//W3C//DTD SVG 1.1//EN" "http://www.w3.org/Graphics/SVG/1.1/DTD/svg11.dtd">
<svg version="1.1" id="圖層_1" xmlns="http://www.w3.org/2000/svg" xmlns:xlink="http://www.w3.org/1999/xlink" x="0px" y="0px"
	 width="31.369px" height="12.576px" viewBox="0 0 31.369 12.576" enable-background="new 0 0 31.369 12.576" xml:space="preserve">
<g>
	<g>
		<g id="LWPOLYLINE_65_">
			<polyline fill="#FFFFFF" points="15.242,4.9 14.924,5.554 16.891,5.554 16.891,4.9 15.242,4.9 			"/>
		</g>
		<g id="LWPOLYLINE_64_">
			<polyline fill="#FFFFFF" points="31.272,5.554 24.782,5.554 24.782,4.9 30.292,4.9 30.469,4.906 30.647,4.957 30.809,5.022 
				30.962,5.121 31.089,5.246 31.194,5.395 31.272,5.554 			"/>
		</g>
		<g id="LWPOLYLINE_63_">
			<polygon fill="#FFFFFF" points="23.126,4.9 23.296,4.922 23.462,4.974 23.61,5.05 23.743,5.142 23.864,5.265 23.956,5.404 
				24.022,5.554 17.641,5.554 17.712,5.404 17.817,5.265 17.927,5.142 18.059,5.05 18.21,4.974 18.38,4.922 18.544,4.9 			"/>
		</g>
		<g id="LWPOLYLINE_62_">
			<polyline fill="#FFFFFF" points="10.515,5.554 10.197,4.9 8.555,4.9 8.555,5.554 10.515,5.554 			"/>
		</g>
		<g id="LWPOLYLINE_61_">
			<polyline fill="#FFFFFF" points="5.412,5.554 5.153,4.9 3.073,4.9 2.812,5.554 5.412,5.554 			"/>
		</g>
		<g id="LWPOLYLINE_60_">
			<polyline fill="#FFFFFF" points="14.821,5.774 14.494,6.438 16.891,6.438 16.891,5.774 14.821,5.774 			"/>
		</g>
		<g id="LWPOLYLINE_59_">
			<polyline fill="#FFFFFF" points="31.37,6.438 31.37,5.774 24.782,5.774 24.782,6.438 31.37,6.438 			"/>
		</g>
		<g id="LWPOLYLINE_58_">
			<polyline fill="#FFFFFF" points="24.124,6.438 24.124,5.774 17.546,5.774 17.546,6.438 24.124,6.438 			"/>
		</g>
		<g id="LWPOLYLINE_57_">
			<polyline fill="#FFFFFF" points="5.76,6.438 5.498,5.774 2.723,5.774 2.455,6.438 5.76,6.438 			"/>
		</g>
		<g id="LWPOLYLINE_56_">
			<polyline fill="#FFFFFF" points="14.393,6.65 14.076,7.311 16.891,7.311 16.891,6.65 14.393,6.65 			"/>
		</g>
		<g id="LWPOLYLINE_55_">
			<polyline fill="#FFFFFF" points="31.37,7.311 31.37,6.65 29.721,6.65 29.721,7.311 31.37,7.311 			"/>
		</g>
		<g id="LWPOLYLINE_54_">
			<polyline fill="#FFFFFF" points="26.43,7.311 26.43,6.65 24.782,6.65 24.782,7.311 26.43,7.311 			"/>
		</g>
		<g id="LWPOLYLINE_53_">
			<polyline fill="#FFFFFF" points="24.124,7.311 24.124,6.65 22.483,6.65 22.483,7.311 24.124,7.311 			"/>
		</g>
		<g id="LWPOLYLINE_52_">
			<polyline fill="#FFFFFF" points="11.366,7.311 11.049,6.65 8.555,6.65 8.555,7.311 11.366,7.311 			"/>
		</g>
		<g id="LWPOLYLINE_51_">
			<polyline fill="#FFFFFF" points="6.114,7.311 5.852,6.65 2.368,6.65 2.106,7.311 3.971,7.311 4.107,6.962 4.25,7.311 
				6.114,7.311 			"/>
		</g>
		<g id="LWPOLYLINE_50_">
			<polyline fill="#FFFFFF" points="31.37,8.191 31.37,7.525 29.721,7.525 29.721,8.191 31.37,8.191 			"/>
		</g>
		<g id="LWPOLYLINE_49_">
			<polyline fill="#FFFFFF" points="26.43,8.191 26.43,7.525 24.782,7.525 24.782,8.191 26.43,8.191 			"/>
		</g>
		<g id="LWPOLYLINE_48_">
			<polyline fill="#FFFFFF" points="24.124,8.191 24.124,7.525 22.483,7.525 22.483,8.191 24.124,8.191 			"/>
		</g>
		<g id="LWPOLYLINE_47_">
			<polyline fill="#FFFFFF" points="19.194,8.191 19.194,7.525 17.546,7.525 17.546,8.191 19.194,8.191 			"/>
		</g>
		<g id="LWPOLYLINE_46_">
			<polyline fill="#FFFFFF" points="16.891,8.191 16.891,7.525 13.977,7.525 13.645,8.191 16.891,8.191 			"/>
		</g>
		<g id="LWPOLYLINE_45_">
			<polyline fill="#FFFFFF" points="11.797,8.191 11.475,7.525 8.555,7.525 8.555,8.191 11.797,8.191 			"/>
		</g>
		<g id="LWPOLYLINE_44_">
			<polyline fill="#FFFFFF" points="6.46,8.191 6.2,7.525 4.337,7.525 4.6,8.191 6.46,8.191 			"/>
		</g>
		<g id="LWPOLYLINE_43_">
			<polyline fill="#FFFFFF" points="3.62,8.191 3.88,7.525 2.019,7.525 1.755,8.191 3.62,8.191 			"/>
		</g>
		<g id="LWPOLYLINE_42_">
			<polyline fill="#FFFFFF" points="24.782,8.408 24.782,9.07 26.43,9.07 26.43,8.408 24.782,8.408 			"/>
		</g>
		<g id="LWPOLYLINE_41_">
			<polyline fill="#FFFFFF" points="31.37,9.07 31.37,8.408 29.721,8.408 29.721,9.07 31.37,9.07 			"/>
		</g>
		<g id="LWPOLYLINE_40_">
			<polyline fill="#FFFFFF" points="24.124,9.07 24.124,8.408 22.483,8.408 22.483,9.07 24.124,9.07 			"/>
		</g>
		<g id="LWPOLYLINE_39_">
			<polyline fill="#FFFFFF" points="19.194,9.07 19.194,8.408 17.546,8.408 17.546,9.07 19.194,9.07 			"/>
		</g>
		<g id="LWPOLYLINE_38_">
			<polyline fill="#FFFFFF" points="15.242,9.07 16.891,9.07 16.891,8.408 13.541,8.408 13.227,9.07 15.092,9.07 15.242,8.746 
				15.242,9.07 			"/>
		</g>
		<g id="LWPOLYLINE_37_">
			<polyline fill="#FFFFFF" points="10.197,8.746 10.352,9.07 12.217,9.07 11.895,8.408 8.555,8.408 8.555,9.07 10.197,9.07 
				10.197,8.746 			"/>
		</g>
		<g id="LWPOLYLINE_36_">
			<polyline fill="#FFFFFF" points="6.809,9.07 6.553,8.408 4.698,8.408 4.957,9.07 6.809,9.07 			"/>
		</g>
		<g id="LWPOLYLINE_35_">
			<polyline fill="#FFFFFF" points="3.257,9.07 3.528,8.408 1.665,8.408 1.402,9.07 3.257,9.07 			"/>
		</g>
		<g id="LWPOLYLINE_34_">
			<polyline fill="#FFFFFF" points="13.117,9.289 12.798,9.943 14.662,9.943 14.981,9.289 13.117,9.289 			"/>
		</g>
		<g id="LWPOLYLINE_33_">
			<polyline fill="#FFFFFF" points="22.483,9.289 22.483,9.943 24.124,9.943 24.124,9.289 22.483,9.289 			"/>
		</g>
		<g id="LWPOLYLINE_32_">
			<polyline fill="#FFFFFF" points="31.37,9.943 31.37,9.289 29.721,9.289 29.721,9.943 31.37,9.943 			"/>
		</g>
		<g id="LWPOLYLINE_31_">
			<polyline fill="#FFFFFF" points="26.43,9.943 26.43,9.289 24.782,9.289 24.782,9.943 26.43,9.943 			"/>
		</g>
		<g id="LWPOLYLINE_30_">
			<polyline fill="#FFFFFF" points="19.194,9.943 19.194,9.289 17.546,9.289 17.546,9.943 19.194,9.943 			"/>
		</g>
		<g id="LWPOLYLINE_29_">
			<polyline fill="#FFFFFF" points="16.891,9.943 16.891,9.289 15.242,9.289 15.242,9.943 16.891,9.943 			"/>
		</g>
		<g id="LWPOLYLINE_28_">
			<polyline fill="#FFFFFF" points="12.645,9.943 12.325,9.289 10.463,9.289 10.776,9.943 12.645,9.943 			"/>
		</g>
		<g id="LWPOLYLINE_27_">
			<polyline fill="#FFFFFF" points="10.197,9.943 10.197,9.289 8.555,9.289 8.555,9.943 10.197,9.943 			"/>
		</g>
		<g id="LWPOLYLINE_26_">
			<polyline fill="#FFFFFF" points="7.164,9.943 6.897,9.289 1.316,9.289 1.058,9.943 7.164,9.943 			"/>
		</g>
		<g id="LWPOLYLINE_25_">
			<polyline fill="#FFFFFF" points="15.242,10.164 15.242,10.82 16.891,10.82 16.891,10.164 15.242,10.164 			"/>
		</g>
		<g id="LWPOLYLINE_24_">
			<polyline fill="#FFFFFF" points="22.483,10.164 22.483,10.82 24.124,10.82 24.124,10.164 22.483,10.164 			"/>
		</g>
		<g id="LWPOLYLINE_23_">
			<polyline fill="#FFFFFF" points="31.37,10.82 31.37,10.164 29.721,10.164 29.721,10.82 31.37,10.82 			"/>
		</g>
		<g id="LWPOLYLINE_22_">
			<polyline fill="#FFFFFF" points="26.43,10.82 26.43,10.164 24.782,10.164 24.782,10.82 26.43,10.82 			"/>
		</g>
		<g id="LWPOLYLINE_21_">
			<polyline fill="#FFFFFF" points="19.194,10.82 19.194,10.164 17.546,10.164 17.546,10.82 19.194,10.82 			"/>
		</g>
		<g id="LWPOLYLINE_20_">
			<polyline fill="#FFFFFF" points="14.239,10.82 14.559,10.164 10.89,10.164 11.213,10.82 14.239,10.82 			"/>
		</g>
		<g id="LWPOLYLINE_19_">
			<polyline fill="#FFFFFF" points="10.197,10.82 10.197,10.164 8.555,10.164 8.555,10.82 10.197,10.82 			"/>
		</g>
		<g id="LWPOLYLINE_18_">
			<polyline fill="#FFFFFF" points="7.511,10.82 7.254,10.164 0.966,10.164 0.696,10.82 7.511,10.82 			"/>
		</g>
		<g id="LWPOLYLINE_17_">
			<polyline fill="#FFFFFF" points="31.37,11.042 24.782,11.042 24.782,11.693 31.37,11.693 31.37,11.042 			"/>
		</g>
		<g id="LWPOLYLINE_16_">
			<polyline fill="#FFFFFF" points="24.124,11.693 24.124,11.042 17.546,11.042 17.546,11.693 24.124,11.693 			"/>
		</g>
		<g id="LWPOLYLINE_15_">
			<polyline fill="#FFFFFF" points="16.891,11.693 16.891,11.042 15.242,11.042 15.242,11.693 16.891,11.693 			"/>
		</g>
		<g id="LWPOLYLINE_14_">
			<polyline fill="#FFFFFF" points="13.811,11.693 14.127,11.042 11.31,11.042 11.629,11.693 13.811,11.693 			"/>
		</g>
		<g id="LWPOLYLINE_13_">
			<polyline fill="#FFFFFF" points="10.197,11.693 10.197,11.042 8.555,11.042 8.555,11.693 10.197,11.693 			"/>
		</g>
		<g id="LWPOLYLINE_12_">
			<polyline fill="#FFFFFF" points="7.868,11.693 7.598,11.042 5.742,11.042 6.002,11.693 7.868,11.693 			"/>
		</g>
		<g id="LWPOLYLINE_11_">
			<polyline fill="#FFFFFF" points="2.222,11.693 2.482,11.042 0.617,11.042 0.349,11.693 2.222,11.693 			"/>
		</g>
		<g id="LWPOLYLINE_10_">
			<polyline fill="#FFFFFF" points="15.242,11.91 15.242,12.576 16.891,12.576 16.891,11.91 15.242,11.91 			"/>
		</g>
		<g id="LWPOLYLINE_9_">
			<polyline fill="#FFFFFF" points="13.385,12.576 13.705,11.91 11.752,11.91 12.063,12.576 13.385,12.576 			"/>
		</g>
		<g id="LWPOLYLINE_8_">
			<polyline fill="#FFFFFF" points="10.197,12.576 10.197,11.91 8.555,11.91 8.555,12.576 10.197,12.576 			"/>
		</g>
		<g id="LWPOLYLINE_7_">
			<polyline fill="#FFFFFF" points="8.219,12.576 7.957,11.91 6.095,11.91 6.363,12.576 8.219,12.576 			"/>
		</g>
		<g id="LWPOLYLINE_6_">
			<polyline fill="#FFFFFF" points="1.862,12.576 2.12,11.91 0.26,11.91 0,12.576 1.862,12.576 			"/>
		</g>
		<g id="LWPOLYLINE_5_">
			<polyline fill="#FFFFFF" points="8.555,5.774 10.613,5.774 10.948,6.438 8.555,6.438 8.555,5.774 			"/>
		</g>
		<g id="LWPOLYLINE_4_">
			<polyline fill="#FFFFFF" points="17.546,6.65 19.194,6.65 19.194,7.311 17.546,7.311 17.546,6.65 			"/>
		</g>
		<g id="ELLIPSE_1_">
			<path fill="#FFFFFF" d="M2.415,3.705c0,0.297,0.767,0.527,1.701,0.527c0.945,0,1.705-0.23,1.705-0.527
				c0-0.3-0.76-0.537-1.705-0.537C3.18,3.168,2.415,3.404,2.415,3.705L2.415,3.705"/>
		</g>
		<g id="LWPOLYLINE_3_">
			<g id="XMLID_1_">
				<g>
					<polygon fill="#FFFFFF" points="6.776,1.299 6.776,1.367 6.764,1.438 5.897,3.352 5.028,3.102 4.107,3.015 3.208,3.11 
						2.325,3.373 1.465,1.438 1.438,1.367 1.438,1.299 1.465,1.234 1.465,1.219 1.473,1.215 1.486,1.199 1.502,1.199 1.512,1.192 
						1.53,1.186 1.545,1.186 1.56,1.192 1.575,1.199 1.589,1.199 2.261,2.138 2.282,2.16 2.315,2.175 2.328,2.191 2.361,2.197 
						2.391,2.203 2.425,2.197 2.445,2.191 2.482,2.178 2.507,2.16 2.553,2.111 2.58,2.045 2.602,1.99 2.637,1.92 2.637,1.847 
						2.409,0.734 2.425,0.729 2.425,0.697 2.434,0.687 2.453,0.654 2.472,0.65 2.49,0.645 2.512,0.642 2.531,0.642 2.555,0.645 
						2.57,0.65 2.589,0.654 2.602,0.687 3.116,1.866 3.15,1.898 3.187,1.931 3.236,1.959 3.284,1.972 3.333,1.987 3.384,1.987 
						3.427,1.968 3.483,1.945 3.528,1.92 3.555,1.884 3.725,1.653 3.834,1.4 3.914,1.13 4.029,0.088 4.033,0.063 4.041,0.056 
						4.062,0.035 4.07,0.021 4.084,0 4.107,0 4.137,0 4.155,0 4.164,0 4.199,0 4.205,0.021 4.221,0.039 4.229,0.058 4.242,0.082 
						4.308,1.13 4.389,1.4 4.497,1.653 4.655,1.884 4.698,1.92 4.741,1.945 4.789,1.968 4.835,1.987 4.881,1.987 4.938,1.972 
						4.982,1.959 5.03,1.931 5.061,1.898 5.107,1.866 5.614,0.687 5.626,0.654 5.637,0.65 5.662,0.645 5.684,0.642 5.71,0.642 
						5.732,0.645 5.748,0.65 5.76,0.654 5.783,0.687 5.789,0.697 5.797,0.729 5.803,0.734 5.591,1.847 5.591,1.92 5.61,1.99 
						5.637,2.045 5.666,2.111 5.71,2.16 5.732,2.178 5.767,2.191 5.797,2.197 5.826,2.203 5.854,2.197 5.881,2.191 5.908,2.175 
						5.926,2.16 5.951,2.138 6.631,1.199 6.645,1.199 6.655,1.192 6.671,1.186 6.68,1.186 6.704,1.192 6.718,1.199 6.731,1.199 
						6.742,1.215 6.752,1.219 6.764,1.234 					"/>
				</g>
			</g>
		</g>
		<g id="LWPOLYLINE_2_">
			<polyline fill="#FFFFFF" points="31.272,11.91 24.782,11.91 24.782,12.576 30.292,12.576 30.469,12.568 30.647,12.517 
				30.809,12.449 30.962,12.347 31.089,12.229 31.194,12.082 31.272,11.91 			"/>
		</g>
		<g id="LWPOLYLINE_1_">
			<polygon fill="#FFFFFF" points="23.126,12.576 23.296,12.554 23.462,12.501 23.61,12.425 23.743,12.322 23.864,12.203 
				23.956,12.074 24.022,11.91 17.641,11.91 17.712,12.074 17.817,12.203 17.927,12.322 18.059,12.425 18.21,12.501 18.38,12.554 
				18.544,12.576 			"/>
		</g>
	</g>
</g>
</svg>
